<svg xmlns="http://www.w3.org/2000/svg" width="1200" height="630" viewBox="0 0 1200 630">
  <defs>
    <linearGradient id="bg" x1="0%" y1="0%" x2="100%" y2="100%">
      <stop offset="0%" style="stop-color:#080810"/>
      <stop offset="100%" style="stop-color:#0f0f1a"/>
    </linearGradient>
    <linearGradient id="accent" x1="0%" y1="0%" x2="100%" y2="0%">
      <stop offset="0%" style="stop-color:#a78bfa"/>
      <stop offset="100%" style="stop-color:#ec4899"/>
    </linearGradient>
    <linearGradient id="logoGrad" x1="0%" y1="0%" x2="100%" y2="100%">
      <stop offset="0%" style="stop-color:#a78bfa"/>
      <stop offset="100%" style="stop-color:#ec4899"/>
    </linearGradient>
  </defs>

  <!-- Background -->
  <rect width="1200" height="630" fill="url(#bg)"/>

  <!-- Grid dots -->
  <pattern id="dots" x="0" y="0" width="40" height="40" patternUnits="userSpaceOnUse">
    <circle cx="1" cy="1" r="1" fill="#ffffff08"/>
  </pattern>
  <rect width="1200" height="630" fill="url(#dots)"/>

  <!-- Accent blob -->
  <ellipse cx="950" cy="150" rx="300" ry="200" fill="#a78bfa" opacity="0.06"/>
  <ellipse cx="200" cy="500" rx="250" ry="180" fill="#ec4899" opacity="0.05"/>

  <!-- Left accent bar -->
  <rect x="80" y="80" width="4" height="470" rx="2" fill="url(#accent)"/>

  <!-- Logo D -->
  <g transform="translate(116, 120)">
    <path d="M0 0 L0 80 L32 80 C55 80 72 63 72 40 C72 17 55 0 32 0 Z M14 14 L30 14 C46 14 57 25 57 40 C57 55 46 66 30 66 L14 66 Z" fill="url(#logoGrad)" fill-rule="evenodd"/>
  </g>

  <!-- Name -->
  <text x="220" y="175" font-family="system-ui, -apple-system, sans-serif" font-size="52" font-weight="800" fill="#f8fafc">Daniel Navacerrada</text>

  <!-- Job title with gradient simulation -->
  <text x="220" y="230" font-family="system-ui, -apple-system, sans-serif" font-size="28" font-weight="500" fill="#a78bfa">Desarrollador de Software</text>

  <!-- Divider -->
  <rect x="220" y="260" width="120" height="3" rx="2" fill="url(#accent)"/>

  <!-- Description -->
  <text x="220" y="310" font-family="system-ui, -apple-system, sans-serif" font-size="22" fill="#94a3b8">.NET · Java · N8N · SQL Server · APIs REST</text>
  <text x="220" y="345" font-family="system-ui, -apple-system, sans-serif" font-size="20" fill="#64748b">Freelance · Madrid, España</text>

  <!-- Tags -->
  <rect x="220" y="390" width="110" height="40" rx="8" fill="#a78bfa18" stroke="#a78bfa" stroke-width="1"/>
  <text x="275" y="416" font-family="system-ui, -apple-system, sans-serif" font-size="16" fill="#a78bfa" text-anchor="middle">.NET / C#</text>

  <rect x="345" y="390" width="90" height="40" rx="8" fill="#ec489918" stroke="#ec4899" stroke-width="1"/>
  <text x="390" y="416" font-family="system-ui, -apple-system, sans-serif" font-size="16" fill="#ec4899" text-anchor="middle">Java</text>

  <rect x="450" y="390" width="80" height="40" rx="8" fill="#38bdf818" stroke="#38bdf8" stroke-width="1"/>
  <text x="490" y="416" font-family="system-ui, -apple-system, sans-serif" font-size="16" fill="#38bdf8" text-anchor="middle">N8N</text>

  <rect x="545" y="390" width="120" height="40" rx="8" fill="#4ade8018" stroke="#4ade80" stroke-width="1"/>
  <text x="605" y="416" font-family="system-ui, -apple-system, sans-serif" font-size="16" fill="#4ade80" text-anchor="middle">SQL Server</text>

  <!-- URL -->
  <text x="220" y="510" font-family="system-ui, -apple-system, sans-serif" font-size="20" fill="#475569">navacerradavaron.com</text>

  <!-- Available badge -->
  <rect x="850" y="480" width="240" height="50" rx="25" fill="#10b98120" stroke="#10b981" stroke-width="1.5"/>
  <circle cx="882" cy="505" r="6" fill="#10b981"/>
  <text x="898" y="511" font-family="system-ui, -apple-system, sans-serif" font-size="18" fill="#10b981">Disponible para proyectos</text>
</svg>
